<?xml version="1.0" encoding="UTF-8" standalone="no"?><svg xmlns="http://www.w3.org/2000/svg" xmlns:xlink="http://www.w3.org/1999/xlink" contentScriptType="application/ecmascript" contentStyleType="text/css" height="860px" preserveAspectRatio="none" style="width:1670px;height:860px;" version="1.1" viewBox="0 0 1670 860" width="1670px" zoomAndPan="magnify"><defs><filter height="300%" id="f139oztjqtr4n5" width="300%" x="-1" y="-1"><feGaussianBlur result="blurOut" stdDeviation="2.0"/><feColorMatrix in="blurOut" result="blurOut2" type="matrix" values="0 0 0 0 0 0 0 0 0 0 0 0 0 0 0 0 0 0 .4 0"/><feOffset dx="4.0" dy="4.0" in="blurOut2" result="blurOut3"/><feBlend in="SourceGraphic" in2="blurOut3" mode="normal"/></filter><linearGradient id="g139oztjqtr4n50" x1="50%" x2="50%" y1="0%" y2="100%"><stop offset="0%" stop-color="#98FB98"/><stop offset="100%" stop-color="#FFC0CB"/></linearGradient></defs><g><ellipse cx="755" cy="35.5" fill="#000000" filter="url(#f139oztjqtr4n5)" rx="10" ry="10" style="stroke: none; stroke-width: 1.0;"/><rect fill="#98FB98" filter="url(#f139oztjqtr4n5)" height="50" rx="12.5" ry="12.5" style="stroke: #A80036; stroke-width: 1.5;" width="50" x="717" y="321"/><line style="stroke: #A80036; stroke-width: 1.5;" x1="717" x2="767" y1="347.2969" y2="347.2969"/><text fill="#000000" font-family="sans-serif" font-size="14" lengthAdjust="spacingAndGlyphs" textLength="24" x="730" y="338.9951">Idle</text><rect fill="#98FB98" filter="url(#f139oztjqtr4n5)" height="50" rx="12.5" ry="12.5" style="stroke: #A80036; stroke-width: 1.5;" width="57" x="726.5" y="167"/><line style="stroke: #A80036; stroke-width: 1.5;" x1="726.5" x2="783.5" y1="193.2969" y2="193.2969"/><text fill="#000000" font-family="sans-serif" font-size="14" lengthAdjust="spacingAndGlyphs" textLength="37" x="736.5" y="184.9951">Abort</text><path d="M800,8 L800,63.3984 L1016,63.3984 L1016,18 L1006,8 L800,8 " fill="#FBFB77" filter="url(#f139oztjqtr4n5)" style="stroke: #A80036; stroke-width: 1.0;"/><path d="M1006,8 L1006,18 L1016,18 L1006,8 " fill="#FBFB77" style="stroke: #A80036; stroke-width: 1.0;"/><text fill="#000000" font-family="sans-serif" font-size="13" lengthAdjust="spacingAndGlyphs" textLength="180" x="806" y="25.0669">NP - Nitrogen Tank Pressure</text><text fill="#000000" font-family="sans-serif" font-size="13" lengthAdjust="spacingAndGlyphs" textLength="195" x="806" y="40.1997">N2OP - Nitrous Oxide Pressure</text><text fill="#000000" font-family="sans-serif" font-size="13" lengthAdjust="spacingAndGlyphs" textLength="185" x="806" y="55.3325">N2OW - Nitrous Oxide Weight</text><rect fill="#98FB98" filter="url(#f139oztjqtr4n5)" height="50" rx="12.5" ry="12.5" style="stroke: #A80036; stroke-width: 1.5;" width="50" x="1051" y="10.5"/><line style="stroke: #A80036; stroke-width: 1.5;" x1="1051" x2="1101" y1="36.7969" y2="36.7969"/><text fill="#000000" font-family="sans-serif" font-size="14" lengthAdjust="spacingAndGlyphs" textLength="30" x="1061" y="28.4951">Safe</text><rect fill="#FFC0CB" filter="url(#f139oztjqtr4n5)" height="50" rx="12.5" ry="12.5" style="stroke: #A80036; stroke-width: 1.5;" width="97" x="1136.5" y="10.5"/><line style="stroke: #A80036; stroke-width: 1.5;" x1="1136.5" x2="1233.5" y1="36.7969" y2="36.7969"/><text fill="#000000" font-family="sans-serif" font-size="14" lengthAdjust="spacingAndGlyphs" textLength="77" x="1146.5" y="28.4951">Dangerous</text><rect fill="#FFFFE0" filter="url(#f139oztjqtr4n5)" height="50" rx="12.5" ry="12.5" style="stroke: #A80036; stroke-width: 1.5;" width="80" x="1269" y="10.5"/><line style="stroke: #A80036; stroke-width: 1.5;" x1="1269" x2="1349" y1="36.7969" y2="36.7969"/><text fill="#000000" font-family="sans-serif" font-size="14" lengthAdjust="spacingAndGlyphs" textLength="60" x="1279" y="28.4951">Not Ideal</text><rect fill="#98FB98" filter="url(#f139oztjqtr4n5)" height="104.2969" rx="12.5" ry="12.5" style="stroke: #A80036; stroke-width: 1.5;" width="255" x="818.5" y="140"/><rect fill="#FFFFFF" height="72" rx="12.5" ry="12.5" style="stroke: #FFFFFF; stroke-width: 1.0;" width="249" x="821.5" y="169.2969"/><line style="stroke: #A80036; stroke-width: 1.5;" x1="818.5" x2="1073.5" y1="166.2969" y2="166.2969"/><text fill="#000000" font-family="sans-serif" font-size="14" lengthAdjust="spacingAndGlyphs" textLength="73" x="909.5" y="157.9951">SafePause</text><rect fill="#98FB98" filter="url(#f139oztjqtr4n5)" height="50" rx="12.5" ry="12.5" style="stroke: #A80036; stroke-width: 1.5;" width="50" x="829.5" y="179.2969"/><line style="stroke: #A80036; stroke-width: 1.5;" x1="829.5" x2="879.5" y1="205.5938" y2="205.5938"/><text fill="#000000" font-family="sans-serif" font-size="14" lengthAdjust="spacingAndGlyphs" textLength="24" x="842.5" y="197.292">Idle</text><rect fill="#FFFFE0" filter="url(#f139oztjqtr4n5)" height="50" rx="12.5" ry="12.5" style="stroke: #A80036; stroke-width: 1.5;" width="52" x="988.5" y="179.2969"/><line style="stroke: #A80036; stroke-width: 1.5;" x1="988.5" x2="1040.5" y1="205.5938" y2="205.5938"/><text fill="#000000" font-family="sans-serif" font-size="14" lengthAdjust="spacingAndGlyphs" textLength="32" x="998.5" y="197.292">Vent</text><!--MD5=[f8c5257d27e8e11df8b60933527f9d55]
link SafeIdle to SafeVent--><path d="M879.58,219.6269 C883.76,221.5569 888.16,223.2269 892.5,224.2969 C910.41,228.7169 957.57,228.6269 975.5,224.2969 C978.18,223.6469 980.89,222.7869 983.55,221.7769 " fill="none" id="SafeIdle-&gt;SafeVent" style="stroke: #A80036; stroke-width: 1.0;"/><polygon fill="#A80036" points="988.3,219.8269,978.4552,219.5442,983.6745,221.7256,981.4932,226.9449,988.3,219.8269" style="stroke: #A80036; stroke-width: 1.0;"/><text fill="#000000" font-family="sans-serif" font-size="13" lengthAdjust="spacingAndGlyphs" textLength="81" x="893.5" y="220.3638">NP &gt; Trigger</text><!--MD5=[3034cffa888057aa88071c3c7f5eeb67]
link SafeVent to SafeIdle--><path d="M988.47,204.2969 C960.13,204.2969 914.84,204.2969 884.89,204.2969 " fill="none" id="SafeVent-&gt;SafeIdle" style="stroke: #A80036; stroke-width: 1.0;"/><polygon fill="#A80036" points="879.85,204.2969,888.85,208.2969,884.85,204.2969,888.85,200.2969,879.85,204.2969" style="stroke: #A80036; stroke-width: 1.0;"/><text fill="#000000" font-family="sans-serif" font-size="13" lengthAdjust="spacingAndGlyphs" textLength="89" x="889.5" y="197.3638">NP &lt;= Target</text><rect fill="#98FB98" filter="url(#f139oztjqtr4n5)" height="283.2656" rx="12.5" ry="12.5" style="stroke: #A80036; stroke-width: 1.5;" width="234" x="6" y="507"/><rect fill="#FFFFFF" height="232" rx="12.5" ry="12.5" style="stroke: #FFFFFF; stroke-width: 1.0;" width="228" x="9" y="555.2656"/><line style="stroke: #A80036; stroke-width: 1.5;" x1="6" x2="240" y1="552.2656" y2="552.2656"/><line style="stroke: #A80036; stroke-width: 1.5;" x1="6" x2="240" y1="533.2969" y2="533.2969"/><text fill="#000000" font-family="sans-serif" font-size="14" lengthAdjust="spacingAndGlyphs" textLength="52" x="97" y="524.9951">Filling N</text><text fill="#000000" font-family="sans-serif" font-size="12" lengthAdjust="spacingAndGlyphs" textLength="125" x="11" y="544.4355">TargetNP = 200 bar</text><rect fill="#98FB98" filter="url(#f139oztjqtr4n5)" height="50" rx="12.5" ry="12.5" style="stroke: #A80036; stroke-width: 1.5;" width="50" x="50.39" y="622.2656"/><line style="stroke: #A80036; stroke-width: 1.5;" x1="50.39" x2="100.39" y1="648.5625" y2="648.5625"/><text fill="#000000" font-family="sans-serif" font-size="14" lengthAdjust="spacingAndGlyphs" textLength="24" x="63.39" y="640.2607">Idle</text><rect fill="#FFFFE0" filter="url(#f139oztjqtr4n5)" height="50" rx="12.5" ry="12.5" style="stroke: #A80036; stroke-width: 1.5;" width="76" x="37.39" y="725.2656"/><line style="stroke: #A80036; stroke-width: 1.5;" x1="37.39" x2="113.39" y1="751.5625" y2="751.5625"/><text fill="#000000" font-family="sans-serif" font-size="14" lengthAdjust="spacingAndGlyphs" textLength="56" x="47.39" y="743.2607">FillCOPV</text><ellipse cx="75.39" cy="575.2656" fill="#000000" filter="url(#f139oztjqtr4n5)" rx="10" ry="10" style="stroke: none; stroke-width: 1.0;"/><!--MD5=[6828418637a5c0a9ecae603c36cb9755]
link *start*COPVFill to COPVIdle--><path d="M75.39,585.4156 C75.39,593.4556 75.39,605.5956 75.39,616.9156 " fill="none" id="*start*COPVFill-&gt;COPVIdle" style="stroke: #A80036; stroke-width: 1.0;"/><polygon fill="#A80036" points="75.39,622.0456,79.39,613.0456,75.39,617.0456,71.39,613.0456,75.39,622.0456" style="stroke: #A80036; stroke-width: 1.0;"/><!--MD5=[cb15212f35fee33efde176da03d1a33b]
link COPVIdle to FillCOPV--><path d="M50.29,660.1856 C38.62,667.1756 25.91,677.2256 19.39,690.2656 C12.75,703.5456 21,715.8656 33.04,725.7756 " fill="none" id="COPVIdle-&gt;FillCOPV" style="stroke: #A80036; stroke-width: 1.0;"/><polygon fill="#A80036" points="37.25,729.0456,32.5733,720.3779,33.2933,725.9888,27.6824,726.7087,37.25,729.0456" style="stroke: #A80036; stroke-width: 1.0;"/><text fill="#000000" font-family="sans-serif" font-size="13" lengthAdjust="spacingAndGlyphs" textLength="89" x="20.39" y="703.3325">NP &lt;= Target</text><!--MD5=[59eac595f89efbb5419142af8b2777a1]
link FillCOPV to COPVIdle--><path d="M101.35,725.0356 C109.22,714.7456 114.77,702.3556 110.39,690.2656 C108.69,685.5756 106.22,681.0456 103.36,676.8056 " fill="none" id="FillCOPV-&gt;COPVIdle" style="stroke: #A80036; stroke-width: 1.0;"/><polygon fill="#A80036" points="100.39,672.6656,102.3758,682.3122,103.3002,676.7314,108.881,677.6558,100.39,672.6656" style="stroke: #A80036; stroke-width: 1.0;"/><text fill="#000000" font-family="sans-serif" font-size="13" lengthAdjust="spacingAndGlyphs" textLength="89" x="112.39" y="703.3325">NP &gt;= Target</text><rect fill="#98FB98" filter="url(#f139oztjqtr4n5)" height="297.2344" rx="12.5" ry="12.5" style="stroke: #A80036; stroke-width: 1.5;" width="483" x="275.5" y="500"/><rect fill="#FFFFFF" height="232" rx="12.5" ry="12.5" style="stroke: #FFFFFF; stroke-width: 1.0;" width="477" x="278.5" y="562.2344"/><line style="stroke: #A80036; stroke-width: 1.5;" x1="275.5" x2="758.5" y1="559.2344" y2="559.2344"/><line style="stroke: #A80036; stroke-width: 1.5;" x1="275.5" x2="758.5" y1="526.2969" y2="526.2969"/><text fill="#000000" font-family="sans-serif" font-size="14" lengthAdjust="spacingAndGlyphs" textLength="108" x="463" y="517.9951">PrePressurizing</text><text fill="#000000" font-family="sans-serif" font-size="12" lengthAdjust="spacingAndGlyphs" textLength="128" x="280.5" y="537.4355">TriggerN20P = 7 bar</text><text fill="#000000" font-family="sans-serif" font-size="12" lengthAdjust="spacingAndGlyphs" textLength="126" x="280.5" y="551.4043">TargetN2OP = 5 bar</text><rect fill="#98FB98" filter="url(#f139oztjqtr4n5)" height="50" rx="12.5" ry="12.5" style="stroke: #A80036; stroke-width: 1.5;" width="50" x="427.53" y="629.2344"/><line style="stroke: #A80036; stroke-width: 1.5;" x1="427.53" x2="477.53" y1="655.5313" y2="655.5313"/><text fill="#000000" font-family="sans-serif" font-size="14" lengthAdjust="spacingAndGlyphs" textLength="24" x="440.53" y="647.2295">Idle</text><rect fill="#FFFFE0" filter="url(#f139oztjqtr4n5)" height="50" rx="12.5" ry="12.5" style="stroke: #A80036; stroke-width: 1.5;" width="52" x="316.53" y="732.2344"/><line style="stroke: #A80036; stroke-width: 1.5;" x1="316.53" x2="368.53" y1="758.5313" y2="758.5313"/><text fill="#000000" font-family="sans-serif" font-size="14" lengthAdjust="spacingAndGlyphs" textLength="32" x="326.53" y="750.2295">Vent</text><rect fill="#FFFFE0" filter="url(#f139oztjqtr4n5)" height="50" rx="12.5" ry="12.5" style="stroke: #A80036; stroke-width: 1.5;" width="51" x="544.03" y="732.2344"/><line style="stroke: #A80036; stroke-width: 1.5;" x1="544.03" x2="595.03" y1="758.5313" y2="758.5313"/><text fill="#000000" font-family="sans-serif" font-size="14" lengthAdjust="spacingAndGlyphs" textLength="31" x="554.03" y="750.2295">Fill N</text><ellipse cx="452.53" cy="582.2344" fill="#000000" filter="url(#f139oztjqtr4n5)" rx="10" ry="10" style="stroke: none; stroke-width: 1.0;"/><!--MD5=[5f05ed6c3db2d6fe212a18d5455ffb8b]
link *start*PreFill to PrepIdle--><path d="M452.53,592.3844 C452.53,600.4244 452.53,612.5644 452.53,623.8844 " fill="none" id="*start*PreFill-&gt;PrepIdle" style="stroke: #A80036; stroke-width: 1.0;"/><polygon fill="#A80036" points="452.53,629.0144,456.53,620.0144,452.53,624.0144,448.53,620.0144,452.53,629.0144" style="stroke: #A80036; stroke-width: 1.0;"/><!--MD5=[8855f500c499d18f628e8a216dfa231f]
link PrepIdle to PreFillN--><path d="M474.5,679.4544 C484.99,690.5144 497.97,703.5144 510.53,714.2344 C519.57,721.9444 529.98,729.6944 539.52,736.3944 " fill="none" id="PrepIdle-&gt;PreFillN" style="stroke: #A80036; stroke-width: 1.0;"/><polygon fill="#A80036" points="543.83,739.3944,538.7193,730.9753,539.7232,736.5424,534.1561,737.5463,543.83,739.3944" style="stroke: #A80036; stroke-width: 1.0;"/><text fill="#000000" font-family="sans-serif" font-size="13" lengthAdjust="spacingAndGlyphs" textLength="96" x="511.53" y="710.3013">N2OP &lt; Target</text><!--MD5=[0d8b0612f3fb748498c6d41954ad134b]
link PreFillN to PrepIdle--><path d="M595.06,737.1744 C607.72,725.3844 618.39,710.0944 608.53,697.2344 C593.35,677.4244 523.85,664.8544 482.92,659.0344 " fill="none" id="PreFillN-&gt;PrepIdle" style="stroke: #A80036; stroke-width: 1.0;"/><polygon fill="#A80036" points="477.59,658.2944,485.955,663.4931,482.5426,658.9814,487.0543,655.569,477.59,658.2944" style="stroke: #A80036; stroke-width: 1.0;"/><text fill="#000000" font-family="sans-serif" font-size="13" lengthAdjust="spacingAndGlyphs" textLength="107" x="612.53" y="710.3013">N2OP &gt;= Target</text><!--MD5=[af9d423e843a487ce78de82ba46ecc1a]
link PrepIdle to PreVent--><path d="M427.52,658.0144 C386.36,663.1744 307.2,675.6944 290.53,697.2344 C279.06,712.0644 294.87,727.9644 311.98,739.5244 " fill="none" id="PrepIdle-&gt;PreVent" style="stroke: #A80036; stroke-width: 1.0;"/><polygon fill="#A80036" points="316.35,742.3644,310.982,734.107,312.1571,739.6404,306.6237,740.8156,316.35,742.3644" style="stroke: #A80036; stroke-width: 1.0;"/><text fill="#000000" font-family="sans-serif" font-size="13" lengthAdjust="spacingAndGlyphs" textLength="81" x="291.53" y="710.3013">NP &gt; Trigger</text><!--MD5=[51fbd87698e50a8fc8ace6c12ad957ee]
link PreVent to PrepIdle--><path d="M362.87,732.0144 C372.61,720.9544 384.7,707.9644 396.53,697.2344 C404.81,689.7244 414.37,682.1944 423.22,675.6244 " fill="none" id="PreVent-&gt;PrepIdle" style="stroke: #A80036; stroke-width: 1.0;"/><polygon fill="#A80036" points="427.49,672.4744,417.8679,674.5755,423.4593,675.4331,422.6018,681.0245,427.49,672.4744" style="stroke: #A80036; stroke-width: 1.0;"/><text fill="#000000" font-family="sans-serif" font-size="13" lengthAdjust="spacingAndGlyphs" textLength="89" x="397.53" y="710.3013">NP &lt;= Target</text><rect fill="#FFFFE0" filter="url(#f139oztjqtr4n5)" height="401.1719" rx="12.5" ry="12.5" style="stroke: #A80036; stroke-width: 1.5;" width="347" x="793.5" y="448"/><rect fill="#FFFFFF" height="308" rx="12.5" ry="12.5" style="stroke: #FFFFFF; stroke-width: 1.0;" width="341" x="796.5" y="538.1719"/><line style="stroke: #A80036; stroke-width: 1.5;" x1="793.5" x2="1140.5" y1="535.1719" y2="535.1719"/><line style="stroke: #A80036; stroke-width: 1.5;" x1="793.5" x2="1140.5" y1="474.2969" y2="474.2969"/><text fill="#000000" font-family="sans-serif" font-size="14" lengthAdjust="spacingAndGlyphs" textLength="72" x="931" y="465.9951">Filling N2O</text><text fill="#000000" font-family="sans-serif" font-size="12" lengthAdjust="spacingAndGlyphs" textLength="137" x="798.5" y="485.4355">TriggerN2OP = 20 bar</text><text fill="#000000" font-family="sans-serif" font-size="12" lengthAdjust="spacingAndGlyphs" textLength="134" x="798.5" y="499.4043">TargetN2OP = 18 bar</text><text fill="#000000" font-family="sans-serif" font-size="12" lengthAdjust="spacingAndGlyphs" textLength="122" x="798.5" y="513.373">TriggerTemp = 5 ºC</text><text fill="#000000" font-family="sans-serif" font-size="12" lengthAdjust="spacingAndGlyphs" textLength="129" x="798.5" y="527.3418">TargetWeight = 7 kg</text><rect fill="#98FB98" filter="url(#f139oztjqtr4n5)" height="50" rx="12.5" ry="12.5" style="stroke: #A80036; stroke-width: 1.5;" width="50" x="865.53" y="548.1719"/><line style="stroke: #A80036; stroke-width: 1.5;" x1="865.53" x2="915.53" y1="574.4688" y2="574.4688"/><text fill="#000000" font-family="sans-serif" font-size="14" lengthAdjust="spacingAndGlyphs" textLength="24" x="878.53" y="566.167">Idle</text><rect fill="#FFC0CB" filter="url(#f139oztjqtr4n5)" height="50" rx="12.5" ry="12.5" style="stroke: #A80036; stroke-width: 1.5;" width="55" x="863.03" y="651.1719"/><line style="stroke: #A80036; stroke-width: 1.5;" x1="863.03" x2="918.03" y1="677.4688" y2="677.4688"/><text fill="#000000" font-family="sans-serif" font-size="14" lengthAdjust="spacingAndGlyphs" textLength="35" x="873.03" y="669.167">FillOx</text><rect fill="#FFFFE0" filter="url(#f139oztjqtr4n5)" height="50" rx="12.5" ry="12.5" style="stroke: #A80036; stroke-width: 1.5;" width="87" x="847.03" y="784.1719"/><line style="stroke: #A80036; stroke-width: 1.5;" x1="847.03" x2="934.03" y1="810.4688" y2="810.4688"/><text fill="#000000" font-family="sans-serif" font-size="14" lengthAdjust="spacingAndGlyphs" textLength="67" x="857.03" y="802.167">VentFillOx</text><!--MD5=[b9be1a3332891e7de0c8842c6cfc6610]
link FillOxIdle to FillOx--><path d="M865.46,584.4119 C852.2,591.2719 837.13,601.7219 829.53,616.1719 C819.99,634.3219 838.86,650.1819 858.07,660.8719 " fill="none" id="FillOxIdle-&gt;FillOx" style="stroke: #A80036; stroke-width: 1.0;"/><polygon fill="#A80036" points="862.94,663.4719,856.8851,655.7041,858.5294,661.1167,853.1168,662.761,862.94,663.4719" style="stroke: #A80036; stroke-width: 1.0;"/><text fill="#000000" font-family="sans-serif" font-size="13" lengthAdjust="spacingAndGlyphs" textLength="99" x="830.53" y="629.2388">N2OW &lt; Target</text><!--MD5=[394cce70a27ef5b819dbf312da6f138a]
link FillOx to FillOxIdle--><path d="M918.12,653.4919 C928.15,642.8619 935.87,629.5019 930.53,616.1719 C927.97,609.7619 923.91,603.7819 919.35,598.4419 " fill="none" id="FillOx-&gt;FillOxIdle" style="stroke: #A80036; stroke-width: 1.0;"/><polygon fill="#A80036" points="915.77,594.5019,918.8553,603.855,919.1298,598.2048,924.78,598.4793,915.77,594.5019" style="stroke: #A80036; stroke-width: 1.0;"/><text fill="#000000" font-family="sans-serif" font-size="13" lengthAdjust="spacingAndGlyphs" textLength="110" x="932.53" y="629.2388">N2OW &gt;= Target</text><!--MD5=[29b5fe28dce19dc462beda1077c177e8]
link FillOx to VentFillOx--><path d="M863.03,684.1019 C845.23,690.1719 823.42,700.9519 812.53,719.1719 C801.82,737.1019 801.82,748.2419 812.53,766.1719 C819.36,777.5919 830.48,786.0919 842.21,792.3419 " fill="none" id="FillOx-&gt;VentFillOx" style="stroke: #A80036; stroke-width: 1.0;"/><polygon fill="#A80036" points="846.91,794.7119,840.6781,787.0853,842.4465,792.4587,837.0731,794.227,846.91,794.7119" style="stroke: #A80036; stroke-width: 1.0;"/><text fill="#000000" font-family="sans-serif" font-size="13" lengthAdjust="spacingAndGlyphs" textLength="99" x="831.03" y="732.2388">N2OP &gt; Trigger</text><text fill="#000000" font-family="sans-serif" font-size="13" lengthAdjust="spacingAndGlyphs" textLength="29" x="866.03" y="747.3716">AND</text><text fill="#000000" font-family="sans-serif" font-size="13" lengthAdjust="spacingAndGlyphs" textLength="134" x="813.53" y="762.5044">N2OT &gt; TriggerTemp</text><!--MD5=[0642f2e800f980d7807e195b3630ed6b]
link VentFillOx to FillOx--><path d="M934.22,783.9419 C939.99,778.8419 945.09,772.9219 948.53,766.1719 C958.03,747.5719 958.03,737.7719 948.53,719.1719 C942.89,708.1219 932.84,699.3119 922.68,692.6719 " fill="none" id="VentFillOx-&gt;FillOx" style="stroke: #A80036; stroke-width: 1.0;"/><polygon fill="#A80036" points="918.32,689.9519,923.8443,698.1055,922.564,692.5954,928.0741,691.3151,918.32,689.9519" style="stroke: #A80036; stroke-width: 1.0;"/><text fill="#000000" font-family="sans-serif" font-size="13" lengthAdjust="spacingAndGlyphs" textLength="107" x="975.53" y="732.2388">N2OP &lt;= Target</text><text fill="#000000" font-family="sans-serif" font-size="13" lengthAdjust="spacingAndGlyphs" textLength="18" x="1020.03" y="747.3716">OR</text><text fill="#000000" font-family="sans-serif" font-size="13" lengthAdjust="spacingAndGlyphs" textLength="145" x="956.53" y="762.5044">N2OT &lt;= TriggerTemp</text><rect fill="#FFFFE0" filter="url(#f139oztjqtr4n5)" height="297.2344" rx="12.5" ry="12.5" style="stroke: #A80036; stroke-width: 1.5;" width="483" x="1175.5" y="500"/><rect fill="#FFFFFF" height="232" rx="12.5" ry="12.5" style="stroke: #FFFFFF; stroke-width: 1.0;" width="477" x="1178.5" y="562.2344"/><line style="stroke: #A80036; stroke-width: 1.5;" x1="1175.5" x2="1658.5" y1="559.2344" y2="559.2344"/><line style="stroke: #A80036; stroke-width: 1.5;" x1="1175.5" x2="1658.5" y1="526.2969" y2="526.2969"/><text fill="#000000" font-family="sans-serif" font-size="14" lengthAdjust="spacingAndGlyphs" textLength="116" x="1359" y="517.9951">PostPressurizing</text><text fill="#000000" font-family="sans-serif" font-size="12" lengthAdjust="spacingAndGlyphs" textLength="390" x="1180.5" y="537.4355">TriggerN2OP = 55 bar ? might not be needed (regulator valve)</text><text fill="#000000" font-family="sans-serif" font-size="12" lengthAdjust="spacingAndGlyphs" textLength="134" x="1180.5" y="551.4043">TargetN2OP = 50 bar</text><rect fill="url(#g139oztjqtr4n50)" filter="url(#f139oztjqtr4n5)" height="50.2656" rx="12.5" ry="12.5" style="stroke: #A80036; stroke-width: 1.5;" width="256" x="1224.53" y="629.2344"/><line style="stroke: #A80036; stroke-width: 1.5;" x1="1224.53" x2="1480.53" y1="655.5313" y2="655.5313"/><text fill="#000000" font-family="sans-serif" font-size="14" lengthAdjust="spacingAndGlyphs" textLength="24" x="1340.53" y="647.2295">Idle</text><text fill="#000000" font-family="sans-serif" font-size="12" lengthAdjust="spacingAndGlyphs" textLength="236" x="1229.53" y="671.6699">Safe if not too long (Pressurized N2O)</text><rect fill="#FFFFE0" filter="url(#f139oztjqtr4n5)" height="50" rx="12.5" ry="12.5" style="stroke: #A80036; stroke-width: 1.5;" width="52" x="1216.53" y="732.2344"/><line style="stroke: #A80036; stroke-width: 1.5;" x1="1216.53" x2="1268.53" y1="758.5313" y2="758.5313"/><text fill="#000000" font-family="sans-serif" font-size="14" lengthAdjust="spacingAndGlyphs" textLength="32" x="1226.53" y="750.2295">Vent</text><rect fill="#FFFFE0" filter="url(#f139oztjqtr4n5)" height="50" rx="12.5" ry="12.5" style="stroke: #A80036; stroke-width: 1.5;" width="51" x="1444.03" y="732.2344"/><line style="stroke: #A80036; stroke-width: 1.5;" x1="1444.03" x2="1495.03" y1="758.5313" y2="758.5313"/><text fill="#000000" font-family="sans-serif" font-size="14" lengthAdjust="spacingAndGlyphs" textLength="31" x="1454.03" y="750.2295">Fill N</text><ellipse cx="1352.53" cy="582.2344" fill="#000000" filter="url(#f139oztjqtr4n5)" rx="10" ry="10" style="stroke: none; stroke-width: 1.0;"/><!--MD5=[a8b65fc95f1370a2ee20295c973ee23c]
link *start*PostFill to PostIdle--><path d="M1352.53,592.3844 C1352.53,600.4244 1352.53,612.5644 1352.53,623.8844 " fill="none" id="*start*PostFill-&gt;PostIdle" style="stroke: #A80036; stroke-width: 1.0;"/><polygon fill="#A80036" points="1352.53,629.0144,1356.53,620.0144,1352.53,624.0144,1348.53,620.0144,1352.53,629.0144" style="stroke: #A80036; stroke-width: 1.0;"/><!--MD5=[ac94d5711f6fe8eed9cd1f30bdec39b8]
link PostIdle to PostFillN--><path d="M1374.5,679.4544 C1384.99,690.5144 1397.97,703.5144 1410.53,714.2344 C1419.57,721.9444 1429.98,729.6944 1439.52,736.3944 " fill="none" id="PostIdle-&gt;PostFillN" style="stroke: #A80036; stroke-width: 1.0;"/><polygon fill="#A80036" points="1443.83,739.3944,1438.7193,730.9753,1439.7232,736.5424,1434.1561,737.5463,1443.83,739.3944" style="stroke: #A80036; stroke-width: 1.0;"/><text fill="#000000" font-family="sans-serif" font-size="13" lengthAdjust="spacingAndGlyphs" textLength="96" x="1411.53" y="710.3013">N2OP &lt; Target</text><!--MD5=[64f0992f683f98dec4fd33b6ab220b01]
link PostFillN to PostIdle--><path d="M1495.06,737.1744 C1507.72,725.3844 1518.39,710.0944 1508.53,697.2344 C1503.86,691.1344 1494.05,685.7244 1481.5,680.9844 " fill="none" id="PostFillN-&gt;PostIdle" style="stroke: #A80036; stroke-width: 1.0;"/><polygon fill="#A80036" points="1476.76,679.2744,1483.8695,686.0902,1481.4635,680.9705,1486.5832,678.5646,1476.76,679.2744" style="stroke: #A80036; stroke-width: 1.0;"/><text fill="#000000" font-family="sans-serif" font-size="13" lengthAdjust="spacingAndGlyphs" textLength="107" x="1512.53" y="710.3013">N2OP &gt;= Target</text><!--MD5=[e67c0024dd1e19e2f63dd86f88a028b3]
link PostIdle to PostVent--><path d="M1224.31,678.6344 C1208.59,683.8744 1196.09,690.0544 1190.53,697.2344 C1179.06,712.0644 1194.87,727.9644 1211.98,739.5244 " fill="none" id="PostIdle-&gt;PostVent" style="stroke: #A80036; stroke-width: 1.0;"/><polygon fill="#A80036" points="1216.35,742.3644,1210.982,734.107,1212.1571,739.6404,1206.6237,740.8156,1216.35,742.3644" style="stroke: #A80036; stroke-width: 1.0;"/><text fill="#000000" font-family="sans-serif" font-size="13" lengthAdjust="spacingAndGlyphs" textLength="81" x="1191.53" y="710.3013">NP &gt; Trigger</text><!--MD5=[54888dba80c9ce15eec811fde622110d]
link PostVent to PostIdle--><path d="M1262.87,732.0144 C1272.61,720.9544 1284.7,707.9644 1296.53,697.2344 C1302.02,692.2644 1308.07,687.2744 1314.1,682.5644 " fill="none" id="PostVent-&gt;PostIdle" style="stroke: #A80036; stroke-width: 1.0;"/><polygon fill="#A80036" points="1318.26,679.3544,1308.6883,681.6746,1314.2979,682.4043,1313.5682,688.0139,1318.26,679.3544" style="stroke: #A80036; stroke-width: 1.0;"/><text fill="#000000" font-family="sans-serif" font-size="13" lengthAdjust="spacingAndGlyphs" textLength="89" x="1297.53" y="710.3013">NP &lt;= Target</text><!--MD5=[38f1f8b7f214ff6bc6d4b705f682283d]
link *start to Idle--><path d="M746.17,40.76 C722.8,52.58 659.5,88.42 636,140 C616.84,182.06 617.8,201.51 636,244 C651.42,280 686.68,309.26 712.31,326.84 " fill="none" id="*start-&gt;Idle" style="stroke: #A80036; stroke-width: 1.0;"/><polygon fill="#A80036" points="716.66,329.78,711.4432,321.4263,712.5174,326.9802,706.9635,328.0544,716.66,329.78" style="stroke: #A80036; stroke-width: 1.0;"/><text fill="#000000" font-family="sans-serif" font-size="13" lengthAdjust="spacingAndGlyphs" textLength="71" x="637" y="196.5669">STOP_CMD</text><!--MD5=[e07b3a43b9e799901f3e19b0655c9a6d]
link *start to Abort--><path d="M755,45.7 C755,68.12 755,126.3 755,161.87 " fill="none" id="*start-&gt;Abort" style="stroke: #A80036; stroke-width: 1.0;"/><polygon fill="#A80036" points="755,166.95,759,157.95,755,161.95,751,157.95,755,166.95" style="stroke: #A80036; stroke-width: 1.0;"/><text fill="#000000" font-family="sans-serif" font-size="13" lengthAdjust="spacingAndGlyphs" textLength="80" x="756" y="106.0669">ABORT_CMD</text><!--MD5=[3b27f8b8e569e7aa5d7dda94094db6c0]
link *start to SafePause--><path d="M761.11,43.7 C766.25,49.44 774.03,57.43 782,63 C807.42,80.77 819.53,75.3 845,93 C862.85,105.4 880.49,121.02 895.91,136.12 " fill="none" id="*start-&gt;SafePause" style="stroke: #A80036; stroke-width: 1.0;"/><polygon fill="#A80036" points="899.78,139.95,896.1888,130.7792,896.2231,136.436,890.5664,136.4702,899.78,139.95" style="stroke: #A80036; stroke-width: 1.0;"/><text fill="#000000" font-family="sans-serif" font-size="13" lengthAdjust="spacingAndGlyphs" textLength="81" x="868" y="106.0669">PAUSE_CMD</text><!--MD5=[4152668d090302471d1d91c4b8e6162d]
link SafePause to Idle--><path d="M934.98,244.11 C929.13,260.94 920.28,278.53 907,291 C869.52,326.21 808.71,338.47 772.32,342.74 " fill="none" id="SafePause-&gt;Idle" style="stroke: #A80036; stroke-width: 1.0;"/><polygon fill="#A80036" points="767.13,343.31,776.511,346.3094,772.1005,342.7672,775.6426,338.3567,767.13,343.31" style="stroke: #A80036; stroke-width: 1.0;"/><text fill="#000000" font-family="sans-serif" font-size="13" lengthAdjust="spacingAndGlyphs" textLength="91" x="921" y="287.0669">RESUME_CMD</text><!--MD5=[92878ec994ca87a5ba9c1bb688aacbfc]
link Abort to Idle--><path d="M748.92,217.27 C745.23,233.27 740.88,254.74 739,274 C738.26,281.52 738.79,283.45 739,291 C739.22,298.93 739.62,307.51 740.06,315.44 " fill="none" id="Abort-&gt;Idle" style="stroke: #A80036; stroke-width: 1.0;"/><polygon fill="#A80036" points="740.37,320.82,743.8485,311.6059,740.0839,315.8282,735.8616,312.0636,740.37,320.82" style="stroke: #A80036; stroke-width: 1.0;"/><text fill="#000000" font-family="sans-serif" font-size="13" lengthAdjust="spacingAndGlyphs" textLength="162" x="740" y="287.0669">STOP_CMD / READY_CMD</text><!--MD5=[72b14f88bf0b7e56e0989c88ca57a640]
link Idle to COPVFill--><path d="M716.8,349.74 C628.65,359.71 335.26,396.18 258,448 C236.35,462.52 217.23,481.8 200.71,502.66 " fill="none" id="Idle-&gt;COPVFill" style="stroke: #A80036; stroke-width: 1.0;"/><polygon fill="#A80036" points="197.44,506.86,206.1264,502.2181,200.5127,502.9155,199.8152,497.3019,197.44,506.86" style="stroke: #A80036; stroke-width: 1.0;"/><text fill="#000000" font-family="sans-serif" font-size="13" lengthAdjust="spacingAndGlyphs" textLength="104" x="392" y="414.0669">FILL_COPV_CMD</text><!--MD5=[2ed6965ea3e3a95a0014ee9df7a8cbcd]
link Idle to PreFill--><path d="M723.97,371.08 C703.12,398.92 667.01,447.15 630.73,495.61 " fill="none" id="Idle-&gt;PreFill" style="stroke: #A80036; stroke-width: 1.0;"/><polygon fill="#A80036" points="627.67,499.7,636.2618,494.8853,630.6632,495.6949,629.8536,490.0963,627.67,499.7" style="stroke: #A80036; stroke-width: 1.0;"/><text fill="#000000" font-family="sans-serif" font-size="13" lengthAdjust="spacingAndGlyphs" textLength="78" x="700" y="414.0669">FILL_N_CMD</text><!--MD5=[3b050f3f572a91e7be989e553a0f23ff]
link Idle to MainFill--><path d="M762.72,371.19 C770.47,380.41 779.27,391.09 787,401 C797.8,414.84 808.83,429.23 819.83,443.79 " fill="none" id="Idle-&gt;MainFill" style="stroke: #A80036; stroke-width: 1.0;"/><polygon fill="#A80036" points="822.93,447.9,820.73,438.3,819.93,443.9,814.33,443.1,822.93,447.9" style="stroke: #A80036; stroke-width: 1.0;"/><text fill="#000000" font-family="sans-serif" font-size="13" lengthAdjust="spacingAndGlyphs" textLength="86" x="799" y="414.0669">FILL_OX_CMD</text><!--MD5=[9e421f8de1e63c9149eee3b6ace85bab]
link Idle to PostFill--><path d="M767.12,349.42 C833.81,356.61 1019.62,381.62 1158,448 C1186.3,461.57 1214.45,478.59 1241.21,496.93 " fill="none" id="Idle-&gt;PostFill" style="stroke: #A80036; stroke-width: 1.0;"/><polygon fill="#A80036" points="1245.49,499.88,1240.3595,491.473,1241.3765,497.0377,1235.8118,498.0546,1245.49,499.88" style="stroke: #A80036; stroke-width: 1.0;"/><text fill="#000000" font-family="sans-serif" font-size="13" lengthAdjust="spacingAndGlyphs" textLength="78" x="1083" y="414.0669">FILL_N_CMD</text><!--MD5=[9a7222be45cd1c496c587207d941ad70]
@startuml filling_state_machine
[*] - -> Idle : STOP_CMD
[*] - -> Abort : ABORT_CMD
[*] - -> SafePause : PAUSE_CMD

state "SafePause" as SafePause {
    state "Idle" as SafeIdle #PaleGreen
    state "Vent" as SafeVent #LightYellow
    SafeIdle -> SafeVent : NP > Trigger
    SafeVent -> SafeIdle : NP <= Target
}
SafePause - -> Idle : RESUME_CMD

Abort - -> Idle : STOP_CMD / READY_CMD

note as N1
    NP - Nitrogen Tank Pressure
    N2OP - Nitrous Oxide Pressure
    N2OW - Nitrous Oxide Weight
end note

state Idle #PaleGreen
state Abort #PaleGreen
state SafePause #PaleGreen

state Safe #PaleGreen
state Dangerous #Pink
state "Not Ideal" as NotIdeal #LightYellow

state "Filling N" as COPVFill #PaleGreen {
    state "Idle" as COPVIdle #PaleGreen
    state "FillCOPV" as FillCOPV #LightYellow
    COPVFill : TargetNP = 200 bar
    [*] - -> COPVIdle
    Idle - -> COPVFill : FILL_COPV_CMD
    COPVIdle - -> FillCOPV : NP <= Target
    FillCOPV - -> COPVIdle : NP >= Target
}

state "PrePressurizing" as PreFill #PaleGreen {
    state "Idle" as PrepIdle #PaleGreen
    state "Vent" as PreVent #LightYellow
    state "Fill N" as PreFillN #LightYellow
    PreFill : TriggerN20P = 7 bar
    PreFill : TargetN2OP = 5 bar
    [*] - -> PrepIdle
    Idle - -> PreFill : FILL_N_CMD
    PrepIdle - -> PreFillN : N2OP < Target
    PreFillN - -> PrepIdle : N2OP >= Target
    PrepIdle - -> PreVent : NP > Trigger
    PreVent - -> PrepIdle : NP <= Target
}

state "Filling N2O" as MainFill #LightYellow{
    state "Idle" as FillOxIdle #PaleGreen
    state "FillOx" as FillOx #Pink
    state "VentFillOx" as VentFillOx #LightYellow
    MainFill : TriggerN2OP = 20 bar
    MainFill : TargetN2OP = 18 bar
    MainFill : TriggerTemp = 5 ºC
    MainFill : TargetWeight = 7 kg
    Idle - -> MainFill : FILL_OX_CMD
    FillOxIdle - -> FillOx : N2OW < Target
    FillOx - -> FillOxIdle : N2OW >= Target
    FillOx - -> VentFillOx : N2OP > Trigger\nAND\nN2OT > TriggerTemp
    VentFillOx - -> FillOx : N2OP <= Target\n OR \nN2OT <= TriggerTemp
}

state "PostPressurizing" as PostFill #LightYellow {
    state "Idle" as PostIdle #PaleGreen-Pink
    PostIdle : Safe if not too long (Pressurized N2O)
    state "Vent" as PostVent #LightYellow
    state "Fill N" as PostFillN #LightYellow
    PostFill : TriggerN2OP = 55 bar ? might not be needed (regulator valve)
    PostFill : TargetN2OP = 50 bar
    [*] - -> PostIdle
    Idle - -> PostFill : FILL_N_CMD
    PostIdle - -> PostFillN : N2OP < Target
    PostFillN - -> PostIdle : N2OP >= Target
    PostIdle - -> PostVent : NP > Trigger
    PostVent - -> PostIdle : NP <= Target
}
@enduml

PlantUML version 1.2020.02(Sun Mar 01 10:22:07 WET 2020)
(GPL source distribution)
Java Runtime: OpenJDK Runtime Environment
JVM: OpenJDK 64-Bit Server VM
Java Version: 11.0.26+4-post-Ubuntu-1ubuntu122.04
Operating System: Linux
Default Encoding: UTF-8
Language: en
Country: US
--></g></svg>